<?xml version="1.0" standalone="no"?>
<!DOCTYPE svg PUBLIC "-//W3C//DTD SVG 20010904//EN"
 "http://www.w3.org/TR/2001/REC-SVG-20010904/DTD/svg10.dtd">
<svg version="1.0" xmlns="http://www.w3.org/2000/svg"
 width="512.000000pt" height="512.000000pt" viewBox="0 0 512.000000 512.000000"
 preserveAspectRatio="xMidYMid meet">
<metadata>
Created by potrace 1.14, written by Peter Selinger 2001-2017
</metadata>
<g transform="translate(0.000000,512.000000) scale(0.100000,-0.100000)"
fill="#000000" stroke="none">
<path d="M2378 4955 c-2 -2 -30 -6 -63 -9 -57 -6 -142 -19 -195 -31 -14 -3
-38 -8 -55 -11 -72 -13 -260 -71 -371 -116 -164 -65 -294 -133 -444 -233 -610
-405 -1002 -1053 -1078 -1780 -4 -38 -7 -619 -7 -1291 l0 -1221 28 -36 c15
-20 40 -43 55 -50 36 -18 100 -20 134 -4 16 6 128 111 250 233 198 196 229
223 275 238 56 19 141 20 183 2 14 -5 68 -38 121 -72 209 -136 417 -237 622
-303 336 -107 720 -141 1052 -91 33 5 78 11 100 15 136 19 371 90 531 160 704
307 1224 934 1387 1675 44 198 58 326 58 530 -1 376 -78 708 -242 1045 -127
262 -259 446 -469 655 -383 382 -873 620 -1410 684 -94 11 -453 19 -462 11z
m442 -330 c179 -31 166 -28 270 -55 126 -32 291 -96 416 -159 104 -53 284
-167 329 -208 11 -10 43 -36 70 -58 193 -155 395 -414 520 -670 62 -125 148
-361 159 -436 3 -20 8 -42 10 -50 10 -27 22 -103 36 -219 11 -97 5 -402 -10
-505 -40 -276 -154 -587 -297 -809 -157 -244 -285 -380 -553 -589 -69 -54
-359 -217 -386 -217 -5 0 -21 -7 -36 -14 -57 -30 -239 -86 -359 -110 -181 -37
-186 -37 -394 -41 -172 -3 -271 4 -410 29 -267 48 -540 159 -772 312 -180 120
-273 154 -419 154 -162 0 -282 -52 -421 -184 l-94 -89 4 1024 c2 563 7 1040
11 1059 4 19 14 73 22 120 77 439 308 860 639 1166 94 87 329 264 352 264 6 0
13 3 15 8 6 14 221 118 318 155 94 35 247 81 305 91 17 3 41 8 55 11 58 11 88
16 140 21 30 4 57 8 59 9 5 6 383 -3 421 -10z"/>
<path d="M1964 2931 c-113 -31 -194 -76 -341 -193 -325 -256 -324 -255 -318
-345 7 -103 100 -169 198 -142 18 5 120 78 228 164 242 193 273 210 394 210
81 0 97 -3 155 -32 80 -39 82 -41 155 -133 96 -122 161 -176 267 -224 114 -52
186 -67 313 -62 148 5 255 39 360 114 68 48 387 303 403 322 26 31 43 71 44
105 4 106 -105 189 -205 156 -20 -7 -123 -82 -229 -167 -240 -192 -272 -209
-393 -209 -78 0 -98 4 -150 28 -71 33 -90 50 -163 142 -105 132 -203 205 -334
249 -74 25 -96 28 -208 32 -81 3 -121 0 -176 -15z"/>
</g>
</svg>
